<svg width="120" height="38" viewBox="0 0 120 38" fill="none" xmlns="http://www.w3.org/2000/svg">
<path d="M39.2134 13.0478C34.6841 11.2647 30.1096 11.4531 28.951 13.5437C27.7925 15.6343 29.485 20.6404 32.7032 24.7835C35.9213 28.9266 40.4745 28.7883 42.9846 24.2662C45.4543 19.7583 43.7308 14.8286 39.2134 13.0478Z" fill="white"/>
<path d="M16.1814 14.4926C20.2005 17.2364 24.7012 18.0684 26.296 16.2876C27.8908 14.5069 27.3497 9.25056 25.1303 4.49957C22.911 -0.251408 18.4556 -1.12627 14.9966 2.72362C11.5877 6.56874 12.1742 11.756 16.1885 14.4926" fill="white"/>
<path d="M30.5844 28.9387C29.9408 24.1138 27.5498 20.2091 25.1588 20.2139C22.7678 20.2186 19.2183 24.1329 17.1658 28.9602C15.1133 33.7874 17.4471 37.6969 22.6177 37.6898C27.7882 37.6826 31.2257 33.7517 30.5844 28.9387Z" fill="white"/>
<path d="M12.2407 16.3952C11.4206 16.3952 10.87 16.9005 10.87 17.6538V18.4095H12.8247C12.8247 18.4095 12.8915 24.8339 12.8247 25.5062C12.758 26.1784 12.5863 27.275 11.3753 27.8495C10.3384 28.3453 10.3169 28.803 10.2502 29.2297C10.1644 29.7709 10.2645 29.84 10.6578 29.7423C12.2049 29.3632 13.8522 28.7434 14.6841 27.2154C15.137 26.3834 15.3182 25.4847 15.3182 24.1164V18.3952C16.143 18.3952 16.7485 17.8588 16.7485 17.1365V16.3809L12.2407 16.3952Z" fill="white"/>
<path d="M10.0765 25.0553C9.53061 25.7525 8.83345 26.3165 8.03766 26.7047C7.24186 27.0929 6.36825 27.2951 5.48282 27.2961C2.35284 27.2961 0 24.9004 0 21.7227C0 18.5046 2.35761 16.0754 5.48282 16.0754C6.36117 16.0825 7.22663 16.2874 8.0149 16.6749C8.80317 17.0624 9.49397 17.6226 10.0359 18.3139C10.0359 18.3139 9.20399 19.2078 8.40302 19.2078C8.03232 19.1805 7.67769 19.0454 7.38273 18.8192C6.82629 18.4234 6.15845 18.2147 5.47566 18.2233C3.69494 18.2233 2.24795 19.7918 2.24795 21.7227C2.24795 23.6131 3.69494 25.1507 5.47566 25.1507C6.18228 25.1786 6.8792 24.9789 7.46379 24.581C7.76339 24.3578 8.12281 24.2291 8.49599 24.2115C9.40423 24.2115 10.0765 25.0553 10.0765 25.0553Z" fill="white"/>
<path d="M85.1676 23.3677C84.7274 23.9292 84.1655 24.3834 83.5242 24.696C82.8829 25.0086 82.1789 25.1715 81.4655 25.1723C78.9434 25.1723 77.0435 23.2413 77.0435 20.6811C77.0435 18.1209 78.9505 16.1304 81.4655 16.1304C82.1732 16.1364 82.8706 16.3017 83.5057 16.6141C84.1408 16.9265 84.6974 17.378 85.1342 17.9349C85.1342 17.9349 84.4643 18.6501 83.8183 18.6501C83.5192 18.6284 83.2331 18.519 82.9959 18.3354C82.548 18.0206 82.0129 17.8539 81.4655 17.8587C80.0352 17.8587 78.8671 19.1245 78.8671 20.6787C78.8671 22.233 80.0328 23.4392 81.4655 23.4392C82.0347 23.4619 82.5961 23.3015 83.0674 22.9815C83.3093 22.8023 83.5987 22.6986 83.8994 22.6835C84.624 22.6859 85.1676 23.3677 85.1676 23.3677Z" fill="white"/>
<path d="M113.507 23.3677C113.067 23.9292 112.505 24.3834 111.864 24.696C111.222 25.0086 110.518 25.1715 109.805 25.1723C107.285 25.1723 105.385 23.2413 105.385 20.6811C105.385 18.1209 107.292 16.1304 109.805 16.1304C110.513 16.136 111.211 16.3012 111.846 16.6136C112.482 16.926 113.039 17.3776 113.476 17.9349C113.476 17.9349 112.804 18.6501 112.158 18.6501C111.859 18.6284 111.574 18.5189 111.338 18.3354C110.889 18.0202 110.353 17.8534 109.805 17.8587C108.375 17.8587 107.207 19.1245 107.207 20.6787C107.207 22.233 108.372 23.4392 109.805 23.4392C110.375 23.4614 110.937 23.3011 111.409 22.9815C111.65 22.802 111.939 22.6982 112.239 22.6835C112.966 22.6859 113.507 23.3677 113.507 23.3677Z" fill="white"/>
<path d="M72.2962 18.7119C72.1365 18.1946 72.5822 17.7584 73.1472 17.7584C73.4978 17.7905 73.8304 17.9285 74.1008 18.1541C74.8707 18.6475 75.891 18.1541 76.0388 18.0706C76.0269 17.7631 75.2521 16.123 73.1448 16.123C71.6573 16.123 70.0459 16.9526 70.0459 18.5641C70.0459 19.7822 71.1591 20.4426 71.9958 20.8359C72.8945 21.2602 73.8791 21.2864 74.2366 22.0016C74.6276 22.7835 73.8981 23.7442 72.7873 23.5296C72.3588 23.4242 71.9884 23.1556 71.7551 22.7811C71.4261 22.3329 70.9493 22.2328 70.5083 22.1947C70.2523 22.1744 69.9948 22.1832 69.7407 22.2209C69.7765 23.3318 70.6752 25.1649 73.1281 25.1649C74.7062 25.1649 76.4393 24.1113 76.4655 22.5427C76.4917 19.7036 72.6442 19.8585 72.2962 18.7119Z" fill="white"/>
<path d="M102.951 16.321C102.531 16.321 102.286 16.7454 102.286 17.1602V21.1388L98.5143 16.321H97.6728C97.4606 16.3351 97.2617 16.4298 97.1172 16.5859C96.9727 16.742 96.8934 16.9475 96.8957 17.1602V24.9815H98.2449C98.4566 24.9658 98.6544 24.8706 98.7986 24.7149C98.9428 24.5592 99.0226 24.3546 99.0221 24.1424V20.016L102.934 24.9815H103.649C103.861 24.9675 104.06 24.8727 104.205 24.7167C104.349 24.5606 104.428 24.3551 104.426 24.1424V16.321H102.951Z" fill="white"/>
<path d="M87.2287 16.321C87.0076 16.3265 86.7971 16.4165 86.6405 16.5727C86.4839 16.7288 86.3932 16.9391 86.3872 17.1602V24.9815H87.6769C87.8977 24.9761 88.108 24.8859 88.2642 24.7297C88.4204 24.5735 88.5105 24.3632 88.516 24.1424V16.321H87.2287Z" fill="white"/>
<path d="M94.6427 18.0398C94.8644 18.0373 95.0764 17.9481 95.2333 17.7913C95.3901 17.6345 95.4793 17.4225 95.4818 17.2007V16.321H90.8357C90.6149 16.3265 90.4046 16.4166 90.2484 16.5728C90.0922 16.729 90.002 16.9393 89.9966 17.1602V24.9815H94.6427C94.8659 24.976 95.0783 24.8838 95.2349 24.7246C95.3915 24.5653 95.48 24.3514 95.4818 24.1281V23.2556H92.9072C92.2302 23.2556 92.1158 23.587 92.1158 23.587V21.4749H94.4424C94.6642 21.4724 94.8762 21.3832 95.033 21.2264C95.1899 21.0696 95.2791 20.8576 95.2815 20.6358V19.7585H92.8977C92.2207 19.7585 92.1063 20.0899 92.1063 20.0899V18.0493L94.6427 18.0398Z" fill="white"/>
<path d="M119.161 18.0398C119.383 18.0373 119.595 17.9481 119.752 17.7913C119.909 17.6345 119.998 17.4225 120 17.2007V16.321H115.352C115.131 16.3265 114.921 16.4166 114.764 16.5728C114.608 16.729 114.518 16.9393 114.513 17.1602V24.9815H119.161C119.384 24.976 119.597 24.8838 119.753 24.7246C119.91 24.5653 119.998 24.3514 120 24.1281V23.2556H117.426C116.746 23.2556 116.634 23.587 116.634 23.587V21.4749H118.959C119.18 21.4724 119.392 21.3832 119.549 21.2264C119.706 21.0696 119.795 20.8576 119.798 20.6358V19.7585H117.414C116.734 19.7585 116.622 20.0899 116.622 20.0899V18.0493L119.161 18.0398Z" fill="white"/>
<path d="M57.3683 16.3901C57.151 16.3962 56.9444 16.4853 56.7909 16.6392C56.6374 16.7931 56.5489 17.0001 56.5435 17.2173V24.9123H57.8069C58.0241 24.9063 58.2308 24.8171 58.3843 24.6632C58.5377 24.5093 58.6263 24.3024 58.6317 24.0852V16.3901H57.3683Z" fill="white"/>
<path d="M64.674 16.1304C64.083 16.1338 63.4985 16.2537 62.9538 16.4833C62.4092 16.7129 61.9152 17.0476 61.5001 17.4682C61.0849 17.8889 60.7568 18.3873 60.5345 18.9349C60.3121 19.4826 60.2 20.0686 60.2043 20.6597C60.2 21.2507 60.3121 21.8368 60.5345 22.3844C60.7568 22.932 61.0849 23.4304 61.5001 23.8511C61.9152 24.2718 62.4092 24.6064 62.9538 24.836C63.4985 25.0656 64.083 25.1855 64.674 25.1889C65.2649 25.1855 65.8494 25.0656 66.3939 24.836C66.9384 24.6064 67.4322 24.2716 67.8472 23.8509C68.2621 23.4302 68.59 22.9318 68.8121 22.3842C69.0342 21.8366 69.1461 21.2506 69.1413 20.6597C69.1461 20.0688 69.0342 19.4827 68.8121 18.9351C68.59 18.3875 68.2621 17.8891 67.8472 17.4684C67.4322 17.0477 66.9384 16.7129 66.3939 16.4833C65.8494 16.2537 65.2649 16.1338 64.674 16.1304ZM64.674 23.3176C63.2747 23.3176 62.1424 22.1257 62.1424 20.6501C62.1251 19.9611 62.382 19.2934 62.8567 18.7937C63.3314 18.294 63.985 18.0031 64.674 17.985C66.071 17.985 67.2057 19.1769 67.2057 20.6501C67.2057 22.1233 66.071 23.3176 64.674 23.3176Z" fill="white"/>
<path d="M53.3334 21.3962C53.989 20.8813 54.4657 20.2043 54.4657 19.3509C54.4657 17.6274 53.095 16.3926 51.4049 16.3926H47.9483C47.6783 16.3992 47.4212 16.5093 47.23 16.7C47.0388 16.8908 46.9281 17.1476 46.9209 17.4176V26.9911H51.8888C53.8722 26.9911 55.0665 25.4583 55.0665 24.0256C55.0801 23.4629 54.9214 22.9095 54.6117 22.4396C54.3019 21.9696 53.8559 21.6056 53.3334 21.3962ZM49.2022 18.3807H51.219C51.3679 18.3746 51.5166 18.3984 51.6563 18.4507C51.796 18.503 51.9237 18.5827 52.0321 18.6851C52.1405 18.7875 52.2274 18.9105 52.2875 19.047C52.3476 19.1834 52.3798 19.3305 52.3823 19.4796C52.3786 19.787 52.2548 20.0808 52.0374 20.2981C51.8201 20.5155 51.5263 20.6392 51.219 20.643H50.1701C49.3405 20.643 49.2022 21.0577 49.2022 21.0577V18.3807ZM51.5861 25.0101H50.2249C49.35 25.0101 49.2046 25.4249 49.2046 25.4249V22.6048H51.5884C52.2082 22.6048 52.9186 23.0578 52.9186 23.7372C52.9139 24.6573 52.1939 25.003 51.5837 25.003L51.5861 25.0101Z" fill="white"/>
</svg>
