<svg width="current" height="current" viewBox="0 0 24 24" fill="none" xmlns="http://www.w3.org/2000/svg">
    <path d="M2.625 14.125C2.97018 14.125 3.25 14.4049 3.25 14.75V17.875C3.25 18.5654 3.80964 19.125 4.5 19.125H19.5C20.1904 19.125 20.75 18.5654 20.75 17.875V14.75C20.75 14.4049 21.0298 14.125 21.375 14.125C21.7202 14.125 22 14.4049 22 14.75V17.875C22 19.2557 20.8807 20.375 19.5 20.375H4.5C3.11929 20.375 2 19.2557 2 17.875V14.75C2 14.4049 2.27982 14.125 2.625 14.125Z"
          fill="current"/>
    <path d="M11.5581 16.5669C11.8021 16.811 12.1979 16.811 12.4419 16.5669L16.1919 12.8169C16.436 12.5729 16.436 12.1771 16.1919 11.9331C15.9479 11.689 15.5521 11.689 15.3081 11.9331L12.625 14.6161V3.625C12.625 3.27982 12.3452 3 12 3C11.6548 3 11.375 3.27982 11.375 3.625V14.6161L8.69194 11.9331C8.44786 11.689 8.05214 11.689 7.80806 11.9331C7.56398 12.1771 7.56398 12.5729 7.80806 12.8169L11.5581 16.5669Z"
          fill="current"/>
</svg>
