<svg width="current" height="current" viewBox="0 0 24 24" fill="none" xmlns="http://www.w3.org/2000/svg">
    <path d="M12 20.75C7.16751 20.75 3.25 16.8325 3.25 12C3.25 7.16751 7.16751 3.25 12 3.25C16.8325 3.25 20.75 7.16751 20.75 12C20.75 16.8325 16.8325 20.75 12 20.75ZM12 22C17.5228 22 22 17.5228 22 12C22 6.47715 17.5228 2 12 2C6.47715 2 2 6.47715 2 12C2 17.5228 6.47715 22 12 22Z"
          fill="current"/>
    <path d="M10.7519 15.75C10.7519 15.0596 11.3116 14.5 12.0019 14.5C12.6923 14.5 13.2519 15.0596 13.2519 15.75C13.2519 16.4404 12.6923 17 12.0019 17C11.3116 17 10.7519 16.4404 10.7519 15.75Z"
          fill="current"/>
    <path d="M10.8744 8.2438C10.8078 7.57786 11.3307 7 12 7C12.6693 7 13.1922 7.57785 13.1256 8.2438L12.6872 12.6281C12.6519 12.9811 12.3548 13.25 12 13.25C11.6452 13.25 11.3481 12.9811 11.3128 12.6281L10.8744 8.2438Z"
          fill="current"/>
</svg>
