<svg width="current" height="current" viewBox="0 0 22 22" fill="none" xmlns="http://www.w3.org/2000/svg">
    <path d="M14.4382 8.70703C14.4382 10.6055 12.8991 12.1445 11.0007 12.1445C9.10217 12.1445 7.56315 10.6055 7.56315 8.70703C7.56315 6.80855 9.10217 5.26953 11.0007 5.26953C12.8991 5.26953 14.4382 6.80855 14.4382 8.70703Z"
          fill="#868E95"/>
    <path fill-rule="evenodd" clip-rule="evenodd"
          d="M1.83398 10.9987C1.83398 5.93609 5.93804 1.83203 11.0007 1.83203C16.0633 1.83203 20.1673 5.93609 20.1673 10.9987C20.1673 16.0613 16.0633 20.1654 11.0007 20.1654C5.93804 20.1654 1.83398 16.0613 1.83398 10.9987ZM11.0007 2.97786C6.57087 2.97786 2.97982 6.56891 2.97982 10.9987C2.97982 12.8933 3.63667 14.6344 4.73507 16.0068C5.54984 14.6943 7.3393 13.2904 11.0007 13.2904C14.662 13.2904 16.4515 14.6943 17.2662 16.0068C18.3646 14.6344 19.0215 12.8932 19.0215 10.9987C19.0215 6.56891 15.4304 2.97786 11.0007 2.97786Z"
          fill="#868E95"/>
</svg>
