<svg width="current" height="current" viewBox="0 0 24 24" fill="none" xmlns="http://www.w3.org/2000/svg">
    <path d="M8.625 10.875C8.625 11.4963 8.12132 12 7.5 12C6.87868 12 6.375 11.4963 6.375 10.875C6.375 10.2537 6.87868 9.75 7.5 9.75C8.12132 9.75 8.625 10.2537 8.625 10.875Z"
          fill="current"/>
    <path d="M13.125 10.875C13.125 11.4963 12.6213 12 12 12C11.3787 12 10.875 11.4963 10.875 10.875C10.875 10.2537 11.3787 9.75 12 9.75C12.6213 9.75 13.125 10.2537 13.125 10.875Z"
          fill="current"/>
    <path d="M16.5 12C17.1213 12 17.625 11.4963 17.625 10.875C17.625 10.2537 17.1213 9.75 16.5 9.75C15.8787 9.75 15.375 10.2537 15.375 10.875C15.375 11.4963 15.8787 12 16.5 12Z"
          fill="current"/>
    <path d="M5.43524 19.6533L5.45801 19.6488C7.51613 19.2409 8.77504 18.7018 9.35944 18.4056C10.1945 18.6295 11.0812 18.75 12 18.75C16.9706 18.75 21 15.2242 21 10.875C21 6.52576 16.9706 3 12 3C7.02944 3 3 6.52576 3 10.875C3 12.856 3.83594 14.6661 5.21601 16.0501C5.13296 16.9175 4.906 17.8482 4.62729 18.6579L4.62291 18.6706C4.589 18.7687 4.55434 18.8651 4.51909 18.9593C4.46359 19.1077 4.40663 19.2507 4.34885 19.3872C4.26041 19.5961 4.43179 19.8304 4.65569 19.7937C4.81422 19.7678 4.96875 19.7409 5.1193 19.7134C5.22662 19.6937 5.33194 19.6737 5.43524 19.6533ZM6.33589 16.1573C6.36783 15.8236 6.24932 15.4931 6.01262 15.2557C4.81947 14.0592 4.125 12.5266 4.125 10.875C4.125 7.28349 7.50495 4.125 12 4.125C16.495 4.125 19.875 7.28349 19.875 10.875C19.875 14.4665 16.495 17.625 12 17.625C11.1796 17.625 10.3909 17.5174 9.6508 17.319C9.38304 17.2472 9.0982 17.2768 8.85092 17.4021C8.41527 17.6229 7.45687 18.0436 5.88762 18.4063C6.09939 17.6833 6.26429 16.9051 6.33589 16.1573Z"
          fill="current"/>
</svg>
