<svg width="current" height="current" viewBox="0 0 24 24" fill="none" xmlns="http://www.w3.org/2000/svg">
    <path d="M4.5 3.875C4.5 3.52982 4.77982 3.25 5.125 3.25H18.875C19.2202 3.25 19.5 3.52982 19.5 3.875C19.5 4.22018 19.2202 4.5 18.875 4.5H17.625V5.75C17.625 7.98763 16.3184 9.91886 14.4293 10.8247C14.0669 10.9984 13.875 11.2961 13.875 11.5615V12.4385C13.875 12.704 14.0669 13.0016 14.4293 13.1754C16.3184 14.0812 17.625 16.0124 17.625 18.25V19.5L18.875 19.5C19.2202 19.5 19.5 19.7798 19.5 20.125C19.5 20.4702 19.2202 20.75 18.875 20.75L5.125 20.75C4.77982 20.75 4.5 20.4702 4.5 20.125C4.5 19.7798 4.77982 19.5 5.125 19.5H6.375V18.25C6.375 16.0124 7.6816 14.0812 9.57069 13.1754C9.93306 13.0016 10.125 12.704 10.125 12.4385V11.5615C10.125 11.2961 9.93306 10.9984 9.57069 10.8247C7.6816 9.91886 6.375 7.98763 6.375 5.75V4.5H5.125C4.77982 4.5 4.5 4.22018 4.5 3.875ZM7.625 4.5V5.75C7.625 7.48872 8.63923 8.99177 10.1111 9.69752C10.7773 10.017 11.375 10.6862 11.375 11.5615V12.4385C11.375 13.3138 10.7773 13.9831 10.1111 14.3025C8.63923 15.0083 7.625 16.5113 7.625 18.25V19.5H16.375V18.25C16.375 16.5113 15.3608 15.0083 13.8889 14.3025C13.2227 13.9831 12.625 13.3138 12.625 12.4385V11.5615C12.625 10.6862 13.2227 10.017 13.8889 9.69752C15.3608 8.99177 16.375 7.48872 16.375 5.75V4.5H7.625Z"
          fill="current"/>
</svg>
